# xmcd
#
# Track frame offsets: 
#        150
#        17453
#        33325
#        53120
#        73669
#        90054
#        108379
#        128576
#        145871
#        164104
#        181062
#        202287
#        218064
#        230913
#
# Disc length: 3380 seconds
#
# Revision: 0
# Processed by: cddbd v1.5.2PL0 Copyright (c) Steve Scherf et al.
# Submitted via: ExactAudioCopy v0.99pb5
#
DISCID=c10d320e
DTITLE=Various Artist - My Country
DYEAR=2010
DGENRE=Country
TTITLE0=Blake Shelton - Home
TTITLE1=Big and Rich - Lost in This Moment
TTITLE2=Montgomery Gentry/ My Town
TTITLE3=Fascal Flatts - He Ain't the Leaving Kind
TTITLE4=Rodney Atkins - The River Just Knows
TTITLE5=Jypsi - Anything At All
TTITLE6=Reba McEntire - I'll Be
TTITLE7=Lacy Antebellum - Love Don't Live Here
TTITLE8=Darius Rucker - If I Had Wings
TTITLE9=Brad Paisley - We Danced
TTITLE10=Keith Urban - Better Life
TTITLE11=Dierks Bentley - My Last Name
TTITLE12=Randy Houser - Boots On
TTITLE13=Trace Adkins - 'Til the Last Shot's Fired
EXTD=
EXTT0=
EXTT1=
EXTT2=
EXTT3=
EXTT4=
EXTT5=
EXTT6=
EXTT7=
EXTT8=
EXTT9=
EXTT10=
EXTT11=
EXTT12=
EXTT13=
PLAYORDER=
